<?xml version="1.0" encoding="UTF-8" standalone="no"?>
<!DOCTYPE svg PUBLIC "-//W3C//DTD SVG 1.1//EN"
 "http://www.w3.org/Graphics/SVG/1.1/DTD/svg11.dtd">
<!-- Generated by graphviz version 2.38.0 (20140413.2041)
 -->
<!-- Title: %3 Pages: 1 -->
<svg width="648pt" height="260pt"
 viewBox="0.00 0.00 647.50 260.00" xmlns="http://www.w3.org/2000/svg" xmlns:xlink="http://www.w3.org/1999/xlink">
<g id="graph0" class="graph" transform="scale(1 1) rotate(0) translate(4 256)">
<title>%3</title>
<polygon fill="white" stroke="none" points="-4,4 -4,-256 643.5,-256 643.5,4 -4,4"/>
<!-- Applicative -->
<g id="node1" class="node"><title>Applicative</title>
<text text-anchor="middle" x="41.5" y="-86.3" font-family="Times,serif" font-size="14.00">Applicative</text>
</g>
<!-- Monad -->
<g id="node10" class="node"><title>Monad</title>
<text text-anchor="middle" x="43.5" y="-14.3" font-family="Times,serif" font-size="14.00">Monad</text>
</g>
<!-- Applicative&#45;&gt;Monad -->
<g id="edge1" class="edge"><title>Applicative&#45;&gt;Monad</title>
<path fill="none" stroke="black" d="M41.9944,-71.6966C42.2148,-63.9827 42.4796,-54.7125 42.7254,-46.1124"/>
<polygon fill="black" stroke="black" points="46.2242,-46.2002 43.0113,-36.1043 39.227,-46.0003 46.2242,-46.2002"/>
</g>
<!-- Apply -->
<g id="node2" class="node"><title>Apply</title>
<text text-anchor="middle" x="87.5" y="-158.3" font-family="Times,serif" font-size="14.00">Apply</text>
</g>
<!-- Apply&#45;&gt;Applicative -->
<g id="edge2" class="edge"><title>Apply&#45;&gt;Applicative</title>
<path fill="none" stroke="black" d="M76.1292,-143.697C70.7815,-135.559 64.2957,-125.689 58.3894,-116.701"/>
<polygon fill="black" stroke="black" points="61.1568,-114.539 52.74,-108.104 55.3068,-118.384 61.1568,-114.539"/>
</g>
<!-- Chain -->
<g id="node4" class="node"><title>Chain</title>
<text text-anchor="middle" x="128.5" y="-86.3" font-family="Times,serif" font-size="14.00">Chain</text>
</g>
<!-- Apply&#45;&gt;Chain -->
<g id="edge3" class="edge"><title>Apply&#45;&gt;Chain</title>
<path fill="none" stroke="black" d="M97.6348,-143.697C102.352,-135.644 108.062,-125.894 113.282,-116.982"/>
<polygon fill="black" stroke="black" points="116.448,-118.502 118.482,-108.104 110.408,-114.964 116.448,-118.502"/>
</g>
<!-- Bifunctor -->
<g id="node3" class="node"><title>Bifunctor</title>
<text text-anchor="middle" x="168.5" y="-158.3" font-family="Times,serif" font-size="14.00">Bifunctor</text>
</g>
<!-- ChainRec -->
<g id="node5" class="node"><title>ChainRec</title>
<text text-anchor="middle" x="128.5" y="-14.3" font-family="Times,serif" font-size="14.00">ChainRec</text>
</g>
<!-- Chain&#45;&gt;ChainRec -->
<g id="edge4" class="edge"><title>Chain&#45;&gt;ChainRec</title>
<path fill="none" stroke="black" d="M128.5,-71.6966C128.5,-63.9827 128.5,-54.7125 128.5,-46.1124"/>
<polygon fill="black" stroke="black" points="132,-46.1043 128.5,-36.1043 125,-46.1044 132,-46.1043"/>
</g>
<!-- Chain&#45;&gt;Monad -->
<g id="edge5" class="edge"><title>Chain&#45;&gt;Monad</title>
<path fill="none" stroke="black" d="M107.489,-71.6966C96.7837,-62.8807 83.6103,-52.0321 72.0044,-42.4742"/>
<polygon fill="black" stroke="black" points="74.2139,-39.7597 64.2695,-36.1043 69.7639,-45.1632 74.2139,-39.7597"/>
</g>
<!-- Comonad -->
<g id="node6" class="node"><title>Comonad</title>
<text text-anchor="middle" x="251.5" y="-86.3" font-family="Times,serif" font-size="14.00">Comonad</text>
</g>
<!-- Extend -->
<g id="node7" class="node"><title>Extend</title>
<text text-anchor="middle" x="251.5" y="-158.3" font-family="Times,serif" font-size="14.00">Extend</text>
</g>
<!-- Extend&#45;&gt;Comonad -->
<g id="edge6" class="edge"><title>Extend&#45;&gt;Comonad</title>
<path fill="none" stroke="black" d="M251.5,-143.697C251.5,-135.983 251.5,-126.712 251.5,-118.112"/>
<polygon fill="black" stroke="black" points="255,-118.104 251.5,-108.104 248,-118.104 255,-118.104"/>
</g>
<!-- Foldable -->
<g id="node8" class="node"><title>Foldable</title>
<text text-anchor="middle" x="435.5" y="-230.3" font-family="Times,serif" font-size="14.00">Foldable</text>
</g>
<!-- Traversable -->
<g id="node15" class="node"><title>Traversable</title>
<text text-anchor="middle" x="435.5" y="-158.3" font-family="Times,serif" font-size="14.00">Traversable</text>
</g>
<!-- Foldable&#45;&gt;Traversable -->
<g id="edge7" class="edge"><title>Foldable&#45;&gt;Traversable</title>
<path fill="none" stroke="black" d="M435.5,-215.697C435.5,-207.983 435.5,-198.712 435.5,-190.112"/>
<polygon fill="black" stroke="black" points="439,-190.104 435.5,-180.104 432,-190.104 439,-190.104"/>
</g>
<!-- Functor -->
<g id="node9" class="node"><title>Functor</title>
<text text-anchor="middle" x="251.5" y="-230.3" font-family="Times,serif" font-size="14.00">Functor</text>
</g>
<!-- Functor&#45;&gt;Apply -->
<g id="edge8" class="edge"><title>Functor&#45;&gt;Apply</title>
<path fill="none" stroke="black" d="M220.282,-220.568C196.185,-210.862 161.841,-196.794 123.783,-180.034"/>
<polygon fill="black" stroke="black" points="125.123,-176.799 114.562,-175.952 122.289,-183.2 125.123,-176.799"/>
</g>
<!-- Functor&#45;&gt;Bifunctor -->
<g id="edge9" class="edge"><title>Functor&#45;&gt;Bifunctor</title>
<path fill="none" stroke="black" d="M230.983,-215.697C220.631,-206.965 207.914,-196.24 196.661,-186.75"/>
<polygon fill="black" stroke="black" points="198.682,-183.876 188.781,-180.104 194.169,-189.227 198.682,-183.876"/>
</g>
<!-- Functor&#45;&gt;Extend -->
<g id="edge10" class="edge"><title>Functor&#45;&gt;Extend</title>
<path fill="none" stroke="black" d="M251.5,-215.697C251.5,-207.983 251.5,-198.712 251.5,-190.112"/>
<polygon fill="black" stroke="black" points="255,-190.104 251.5,-180.104 248,-190.104 255,-190.104"/>
</g>
<!-- Profunctor -->
<g id="node12" class="node"><title>Profunctor</title>
<text text-anchor="middle" x="337.5" y="-158.3" font-family="Times,serif" font-size="14.00">Profunctor</text>
</g>
<!-- Functor&#45;&gt;Profunctor -->
<g id="edge11" class="edge"><title>Functor&#45;&gt;Profunctor</title>
<path fill="none" stroke="black" d="M272.758,-215.697C283.589,-206.881 296.918,-196.032 308.66,-186.474"/>
<polygon fill="black" stroke="black" points="310.94,-189.132 316.486,-180.104 306.521,-183.703 310.94,-189.132"/>
</g>
<!-- Functor&#45;&gt;Traversable -->
<g id="edge12" class="edge"><title>Functor&#45;&gt;Traversable</title>
<path fill="none" stroke="black" d="M282.713,-221.125C310.709,-210.475 352.298,-194.653 385.019,-182.205"/>
<polygon fill="black" stroke="black" points="386.327,-185.452 394.429,-178.625 383.838,-178.909 386.327,-185.452"/>
</g>
<!-- Monoid -->
<g id="node11" class="node"><title>Monoid</title>
<text text-anchor="middle" x="527.5" y="-158.3" font-family="Times,serif" font-size="14.00">Monoid</text>
</g>
<!-- Semigroup -->
<g id="node13" class="node"><title>Semigroup</title>
<text text-anchor="middle" x="527.5" y="-230.3" font-family="Times,serif" font-size="14.00">Semigroup</text>
</g>
<!-- Semigroup&#45;&gt;Monoid -->
<g id="edge13" class="edge"><title>Semigroup&#45;&gt;Monoid</title>
<path fill="none" stroke="black" d="M527.5,-215.697C527.5,-207.983 527.5,-198.712 527.5,-190.112"/>
<polygon fill="black" stroke="black" points="531,-190.104 527.5,-180.104 524,-190.104 531,-190.104"/>
</g>
<!-- Setoid -->
<g id="node14" class="node"><title>Setoid</title>
<text text-anchor="middle" x="612.5" y="-230.3" font-family="Times,serif" font-size="14.00">Setoid</text>
</g>
</g>
</svg>
