<?xml version="1.0"?>
<!-- Created by MetaPost 1.504 on 2014.04.15:1537 -->
<svg version="1.1" xmlns="http://www.w3.org/2000/svg" xmlns:xlink="http://www.w3.org/1999/xlink" width="189.62231" height="92.87112" viewBox="0 0 189.62231 92.87112">
<!-- Original BoundingBox: -22.98335 -88.49863 166.63896 4.3725 -->
  <defs>
    <g transform="scale(0.00995,0.00995)" id="GLYPHcmr10_65">
      <path style="fill-rule: evenodd;" d="M398 -696C393 -709,391 -716,375 -716C359 -716,356 -710,351 -696L144 -98C126 -47,86 -32,32 -31L32 0L134 0L55 -1L98 -3L134 -3L165 -3L217 -1L249 0L249 -31C199 -31,174 -56,174 -82C174 -85,175 -95,176 -97L222 -228L469 -228L522 -75C523 -71,525 -65,525 -61C525 -31,469 -31,442 -31L442 0L586 0L478 -3L548 -3L586 -3L629 -3L675 -2L717 0L717 -31L699 -31C639 -31,625 -38,614 -71M345 -584L458 -259L233 -259"></path>
    </g>
    <g transform="scale(0.00995,0.00995)" id="GLYPHcmr10_67">
      <path style="fill-rule: evenodd;" d="M56 -342C56 -135,218 22,404 22C567 22,665 -117,665 -233C665 -243,665 -250,652 -250C641 -250,641 -244,640 -234C632 -91,525 -9,416 -9C355 -9,159 -43,159 -341C159 -640,354 -674,415 -674C524 -674,613 -583,633 -437C635 -423,635 -420,649 -420C665 -420,665 -423,665 -444L665 -681C665 -698,665 -705,654 -705C650 -705,646 -705,638 -693L588 -619C551 -655,500 -705,404 -705C217 -705,56 -546,56 -342"></path>
    </g>
    <g transform="scale(0.00995,0.00995)" id="GLYPHcmr10_70">
      <path style="fill-rule: evenodd;" d="M582 -680L33 -680L33 -649L57 -649C134 -649,136 -638,136 -602L136 -78C136 -42,134 -31,57 -31L33 -31L33 0L185 0L68 -3L146 -3L185 -3L226 -3L317 -3L353 0L353 -31L320 -31C225 -31,225 -44,225 -79L225 -325L311 -325C407 -325,417 -293,417 -208L442 -208L442 -473L417 -473C417 -389,407 -356,311 -356L225 -356L225 -609C225 -642,227 -649,274 -649L394 -649C544 -649,569 -593,585 -455L610 -455"></path>
    </g>
    <g transform="scale(0.00995,0.00995)" id="GLYPHcmr10_77">
      <path style="fill-rule: evenodd;" d="M241 -661C232 -683,229 -683,206 -683L37 -683L37 -652L61 -652C138 -652,140 -641,140 -605L140 -105C140 -78,140 -31,37 -31L37 0L154 0L72 -1L121 -3L154 -3L187 -3L236 -1L271 0L271 -31C168 -31,168 -78,168 -105L168 -644L169 -644L410 -22C415 -9,420 0,430 0C441 0,444 -8,448 -19L694 -652L695 -652L695 -78C695 -42,693 -31,616 -31L592 -31L592 0L736 0L629 -3L697 -3L736 -3L775 -3L842 -3L879 0L879 -31L855 -31C778 -31,776 -42,776 -78L776 -605C776 -641,778 -652,855 -652L879 -652L879 -683L710 -683C684 -683,684 -682,677 -664L458 -101"></path>
    </g>
    <g transform="scale(0.00995,0.00995)" id="GLYPHcmr10_83">
      <path style="fill-rule: evenodd;" d="M349 -388L221 -419C159 -434,120 -488,120 -546C120 -616,174 -677,252 -677C419 -677,441 -513,447 -468C448 -462,448 -456,459 -456C472 -456,472 -461,472 -480L472 -681C472 -698,472 -705,461 -705C454 -705,453 -704,446 -692L411 -635C381 -664,340 -705,251 -705C140 -705,56 -617,56 -511C56 -428,109 -355,187 -328C198 -324,249 -312,319 -295C346 -288,376 -281,404 -244C425 -218,435 -185,435 -152C435 -81,385 -9,301 -9C272 -9,196 -14,143 -63C85 -117,82 -181,81 -217C80 -227,72 -227,69 -227C56 -227,56 -220,56 -202L56 -2C56 15,56 22,67 22C74 22,75 20,82 9C82 8,85 5,118 -48C149 -14,213 22,302 22C419 22,499 -76,499 -186C499 -286,433 -368,349 -388"></path>
    </g>
    <g transform="scale(0.00995,0.00995)" id="GLYPHcmr10_97">
      <path style="fill-rule: evenodd;" d="M333 -76C337 -36,364 6,411 6C432 6,493 -8,493 -89L493 -145L468 -145L468 -89C468 -31,443 -25,432 -25C399 -25,395 -70,395 -75L395 -275C395 -317,395 -356,359 -393C320 -432,270 -448,222 -448C140 -448,71 -401,71 -335C71 -305,91 -288,117 -288C145 -288,163 -308,163 -334C163 -346,158 -379,112 -380C139 -415,188 -426,220 -426C269 -426,326 -387,326 -298L326 -261C275 -258,205 -255,142 -225C67 -191,42 -139,42 -95C42 -14,139 11,202 11C268 11,314 -29,333 -76M326 -240L326 -140C326 -45,254 -11,209 -11C160 -11,119 -46,119 -96C119 -151,161 -234,326 -240"></path>
    </g>
    <g transform="scale(0.00995,0.00995)" id="GLYPHcmr10_99">
      <path style="fill-rule: evenodd;" d="M117 -218C117 -381,199 -423,252 -423C261 -423,324 -422,359 -386C318 -383,312 -353,312 -340C312 -314,330 -294,358 -294C384 -294,404 -311,404 -341C404 -409,328 -448,251 -448C126 -448,34 -340,34 -216C34 -88,133 11,249 11C383 11,415 -109,415 -119C415 -129,405 -129,402 -129C393 -129,391 -125,389 -119C360 -26,295 -14,258 -14C205 -14,117 -57,117 -218"></path>
    </g>
    <g transform="scale(0.00995,0.00995)" id="GLYPHcmr10_100">
      <path style="fill-rule: evenodd;" d="M380 -55L380 11L527 0L527 -31C457 -31,449 -38,449 -87L449 -694L305 -683L305 -652C375 -652,383 -645,383 -596L383 -380C354 -416,311 -442,257 -442C139 -442,34 -344,34 -215C34 -88,132 11,246 11C310 11,355 -23,380 -55M380 -323L380 -118C380 -100,380 -98,369 -81C339 -33,294 -11,251 -11C206 -11,170 -37,146 -75C120 -116,117 -173,117 -214C117 -251,119 -311,148 -356C169 -387,207 -420,261 -420C296 -420,338 -405,369 -360C380 -343,380 -341,380 -323"></path>
    </g>
    <g transform="scale(0.00995,0.00995)" id="GLYPHcmr10_101">
      <path style="fill-rule: evenodd;" d="M112 -252C118 -401,202 -426,236 -426C339 -426,349 -291,349 -252M111 -231L390 -231C412 -231,415 -231,415 -252C415 -351,361 -448,236 -448C120 -448,28 -345,28 -220C28 -86,133 11,248 11C370 11,415 -100,415 -119C415 -129,407 -131,402 -131C393 -131,391 -125,389 -117C354 -14,264 -14,254 -14C204 -14,164 -44,141 -81C111 -129,111 -195,111 -231"></path>
    </g>
    <g transform="scale(0.00995,0.00995)" id="GLYPHcmr10_103">
      <path style="fill-rule: evenodd;" d="M222 -172C135 -172,135 -272,135 -295C135 -322,136 -354,151 -379C159 -391,182 -419,222 -419C309 -419,309 -319,309 -296C309 -269,308 -237,293 -212C285 -200,262 -172,222 -172M106 -133C106 -137,106 -160,123 -180C162 -152,203 -149,222 -149C315 -149,384 -218,384 -295C384 -332,368 -369,343 -392C379 -426,415 -431,433 -431C435 -431,440 -431,443 -430C432 -426,427 -415,427 -403C427 -386,440 -374,456 -374C466 -374,485 -381,485 -404C485 -421,473 -453,434 -453C414 -453,370 -447,328 -406C286 -439,244 -442,222 -442C129 -442,60 -373,60 -296C60 -252,82 -214,107 -193C94 -178,76 -145,76 -110C76 -79,89 -41,120 -21C60 -4,28 39,28 79C28 151,127 206,249 206C367 206,471 155,471 77C471 42,457 -9,406 -37C353 -65,295 -65,234 -65C209 -65,166 -65,159 -66C127 -70,106 -101,106 -133M250 183C149 183,80 132,80 79C80 33,118 -4,162 -7L221 -7C307 -7,419 -7,419 79C419 133,348 183,250 183"></path>
    </g>
    <g transform="scale(0.00995,0.00995)" id="GLYPHcmr10_104">
      <path style="fill-rule: evenodd;" d="M110 -76C110 -31,99 -31,32 -31L32 0L145 0L67 -1L118 -3L145 -3L171 -3L223 -1L257 0L257 -31C190 -31,179 -31,179 -76L179 -260C179 -364,250 -420,314 -420C377 -420,388 -366,388 -309L388 -76C388 -31,377 -31,310 -31L310 0L423 0L345 -1L396 -3L423 -3L449 -3L501 -1L535 0L535 -31C483 -31,458 -31,457 -61L457 -252C457 -338,457 -369,426 -405C412 -422,379 -442,321 -442C237 -442,193 -382,176 -344L176 -694L32 -683L32 -652C102 -652,110 -645,110 -596"></path>
    </g>
    <g transform="scale(0.00995,0.00995)" id="GLYPHcmr10_105">
      <path style="fill-rule: evenodd;" d="M177 -442L37 -431L37 -400C102 -400,111 -394,111 -345L111 -76C111 -31,100 -31,33 -31L33 0L143 0L65 -1L119 -3L143 -3L178 -3L213 -1L247 0L247 -31C181 -31,177 -36,177 -75M181 -616C181 -648,156 -669,128 -669C97 -669,75 -642,75 -616C75 -589,97 -563,128 -563C156 -563,181 -584,181 -616"></path>
    </g>
    <g transform="scale(0.00995,0.00995)" id="GLYPHcmr10_108">
      <path style="fill-rule: evenodd;" d="M177 -694L33 -683L33 -652C103 -652,111 -645,111 -596L111 -76C111 -31,100 -31,33 -31L33 0L144 0L66 -1L119 -3L144 -3L169 -3L218 -1L255 0L255 -31C188 -31,177 -31,177 -76"></path>
    </g>
    <g transform="scale(0.00995,0.00995)" id="GLYPHcmr10_109">
      <path style="fill-rule: evenodd;" d="M110 -344L110 -76C110 -31,99 -31,32 -31L32 0L145 0L67 -1L118 -3L145 -3L171 -3L223 -1L257 0L257 -31C190 -31,179 -31,179 -76L179 -260C179 -364,250 -420,314 -420C377 -420,388 -366,388 -309L388 -76C388 -31,377 -31,310 -31L310 0L423 0L345 -1L396 -3L423 -3L449 -3L501 -1L535 0L535 -31C468 -31,457 -31,457 -76L457 -260C457 -364,528 -420,592 -420C655 -420,666 -366,666 -309L666 -76C666 -31,655 -31,588 -31L588 0L701 0L623 -1L674 -3L701 -3L727 -3L779 -1L813 0L813 -31C761 -31,736 -31,735 -61L735 -252C735 -338,735 -369,704 -405C690 -422,657 -442,599 -442C515 -442,471 -382,454 -344C440 -431,366 -442,321 -442C248 -442,201 -399,173 -337L173 -442L32 -431L32 -400C102 -400,110 -393,110 -344"></path>
    </g>
    <g transform="scale(0.00995,0.00995)" id="GLYPHcmr10_110">
      <path style="fill-rule: evenodd;" d="M110 -344L110 -76C110 -31,99 -31,32 -31L32 0L145 0L67 -1L118 -3L145 -3L171 -3L223 -1L257 0L257 -31C190 -31,179 -31,179 -76L179 -260C179 -364,250 -420,314 -420C377 -420,388 -366,388 -309L388 -76C388 -31,377 -31,310 -31L310 0L423 0L345 -1L396 -3L423 -3L449 -3L501 -1L535 0L535 -31C483 -31,458 -31,457 -61L457 -252C457 -338,457 -369,426 -405C412 -422,379 -442,321 -442C248 -442,201 -399,173 -337L173 -442L32 -431L32 -400C102 -400,110 -393,110 -344"></path>
    </g>
    <g transform="scale(0.00995,0.00995)" id="GLYPHcmr10_111">
      <path style="fill-rule: evenodd;" d="M471 -214C471 -342,371 -448,250 -448C125 -448,28 -339,28 -214C28 -85,132 11,249 11C370 11,471 -87,471 -214M250 -14C207 -14,163 -35,136 -81C111 -125,111 -186,111 -222C111 -261,111 -315,135 -359C162 -405,209 -426,249 -426C293 -426,336 -404,362 -361C388 -318,388 -260,388 -222C388 -186,388 -132,366 -88C344 -43,300 -14,250 -14"></path>
    </g>
    <g transform="scale(0.00995,0.00995)" id="GLYPHcmr10_112">
      <path style="fill-rule: evenodd;" d="M172 -376L172 -442L28 -431L28 -400C99 -400,106 -394,106 -350L106 118C106 163,95 163,28 163L28 194L140 194L62 193L114 191L140 191L167 191L218 193L253 194L253 163C186 163,175 163,175 118L175 -50L175 -59C180 -43,222 11,298 11C417 11,521 -87,521 -216C521 -343,424 -442,312 -442C234 -442,192 -398,172 -376M175 -114L175 -337C204 -388,253 -417,304 -417C377 -417,438 -329,438 -216C438 -95,368 -11,294 -11C254 -11,216 -31,189 -72C175 -93,175 -94,175 -114"></path>
    </g>
    <g transform="scale(0.00995,0.00995)" id="GLYPHcmr10_114">
      <path style="fill-rule: evenodd;" d="M167 -332L167 -442L28 -431L28 -400C98 -400,106 -393,106 -344L106 -76C106 -31,95 -31,28 -31L28 0L142 0L67 -1L114 -3L142 -3L182 -3L229 -3L269 0L269 -31L248 -31C174 -31,172 -42,172 -78L172 -232C172 -331,214 -420,290 -420C297 -420,299 -420,301 -419C298 -418,278 -406,278 -380C278 -352,299 -337,321 -337C339 -337,364 -349,364 -381C364 -413,333 -442,290 -442C217 -442,181 -375,167 -332"></path>
    </g>
    <g transform="scale(0.00995,0.00995)" id="GLYPHcmr10_116">
      <path style="fill-rule: evenodd;" d="M173 -400L316 -400L316 -431L173 -431L173 -615L148 -615C147 -533,117 -426,19 -422L19 -400L104 -400L104 -124C104 -1,197 11,233 11C304 11,332 -60,332 -124L332 -181L307 -181L307 -126C307 -52,277 -14,240 -14C173 -14,173 -105,173 -122"></path>
    </g>
    <g transform="scale(0.00995,0.00995)" id="GLYPHcmr10_117">
      <path style="fill-rule: evenodd;" d="M391 -79L391 11L535 0L535 -31C465 -31,457 -38,457 -87L457 -442L310 -431L310 -400C380 -400,388 -393,388 -344L388 -166C388 -79,340 -11,267 -11C183 -11,179 -58,179 -110L179 -442L32 -431L32 -400C110 -400,110 -397,110 -308L110 -158C110 -80,110 11,262 11C318 11,362 -17,391 -79"></path>
    </g>
    <g transform="scale(0.00995,0.00995)" id="GLYPHcmr10_118">
      <path style="fill-rule: evenodd;" d="M416 -333C425 -356,442 -399,508 -400L508 -431L433 -431L485 -429L456 -428L433 -428L409 -428L363 -430L346 -431L346 -400C383 -399,394 -376,394 -357C394 -348,392 -344,388 -333L286 -78L174 -357C168 -370,168 -372,168 -374C168 -400,207 -400,225 -400L225 -431L116 -431L195 -430L139 -428L116 -428L89 -428L49 -429L19 -431L19 -400C82 -400,86 -394,99 -363L243 -8C249 6,251 11,264 11C277 11,281 2,285 -8"></path>
    </g>
    <g transform="scale(0.00995,0.00995)" id="GLYPHcmr10_121">
      <path style="fill-rule: evenodd;" d="M415 -336C441 -399,492 -400,508 -400L508 -431L433 -431L485 -429L456 -428L433 -428L415 -428L368 -430L346 -431L346 -400C377 -399,393 -382,393 -357C393 -347,392 -345,387 -333L286 -87L175 -356C171 -366,169 -370,169 -374C169 -400,206 -400,225 -400L225 -431L116 -431L199 -430L133 -428L116 -428L89 -428L49 -429L19 -431L19 -400C67 -400,86 -400,100 -365L250 0C245 13,231 46,225 59C203 114,175 183,111 183C106 183,83 183,64 165C95 161,103 139,103 123C103 97,84 81,61 81C41 81,19 94,19 124C19 169,61 205,111 205C174 205,215 148,239 91"></path>
    </g>
  </defs>
  <g transform="translate(0 6.8078)" style="fill: rgb(0%,0%,0%);">
    <use xlink:href="#GLYPHcmr10_83"></use>
    <use xlink:href="#GLYPHcmr10_101" x="5.55565"></use>
    <use xlink:href="#GLYPHcmr10_109" x="10.00018"></use>
    <use xlink:href="#GLYPHcmr10_105" x="18.33368"></use>
    <use xlink:href="#GLYPHcmr10_103" x="21.11151"></use>
    <use xlink:href="#GLYPHcmr10_114" x="26.1116"></use>
    <use xlink:href="#GLYPHcmr10_111" x="30.02835"></use>
    <use xlink:href="#GLYPHcmr10_117" x="35.02844"></use>
    <use xlink:href="#GLYPHcmr10_112" x="40.5841"></use>
  </g>
  <g transform="translate(6.51726 50.35144)" style="fill: rgb(0%,0%,0%);">
    <use xlink:href="#GLYPHcmr10_77"></use>
    <use xlink:href="#GLYPHcmr10_111" x="9.16682"></use>
    <use xlink:href="#GLYPHcmr10_110" x="14.16692"></use>
    <use xlink:href="#GLYPHcmr10_111" x="19.72258"></use>
    <use xlink:href="#GLYPHcmr10_105" x="24.72267"></use>
    <use xlink:href="#GLYPHcmr10_100" x="27.5005"></use>
  </g>
  <g transform="translate(76.47014 7.7764)" style="fill: rgb(0%,0%,0%);">
    <use xlink:href="#GLYPHcmr10_70"></use>
    <use xlink:href="#GLYPHcmr10_117" x="6.5279"></use>
    <use xlink:href="#GLYPHcmr10_110" x="12.08356"></use>
    <use xlink:href="#GLYPHcmr10_99" x="17.63922"></use>
    <use xlink:href="#GLYPHcmr10_116" x="22.08376"></use>
    <use xlink:href="#GLYPHcmr10_111" x="25.97272"></use>
    <use xlink:href="#GLYPHcmr10_114" x="30.97281"></use>
  </g>
  <g transform="translate(80.56592 49.38284)" style="fill: rgb(0%,0%,0%);">
    <use xlink:href="#GLYPHcmr10_65"></use>
    <use xlink:href="#GLYPHcmr10_112" x="7.50012"></use>
    <use xlink:href="#GLYPHcmr10_112" x="13.05579"></use>
    <use xlink:href="#GLYPHcmr10_108" x="18.61145"></use>
    <use xlink:href="#GLYPHcmr10_121" x="21.38928"></use>
  </g>
  <g transform="translate(139.80893 49.38284)" style="fill: rgb(0%,0%,0%);">
    <use xlink:href="#GLYPHcmr10_65"></use>
    <use xlink:href="#GLYPHcmr10_112" x="7.50012"></use>
    <use xlink:href="#GLYPHcmr10_112" x="13.05579"></use>
    <use xlink:href="#GLYPHcmr10_108" x="18.61145"></use>
    <use xlink:href="#GLYPHcmr10_105" x="21.38928"></use>
    <use xlink:href="#GLYPHcmr10_99" x="24.16711"></use>
    <use xlink:href="#GLYPHcmr10_97" x="28.61163"></use>
    <use xlink:href="#GLYPHcmr10_116" x="33.61174"></use>
    <use xlink:href="#GLYPHcmr10_105" x="37.5007"></use>
    <use xlink:href="#GLYPHcmr10_118" x="40.27852"></use>
    <use xlink:href="#GLYPHcmr10_101" x="45.55641"></use>
  </g>
  <g transform="translate(80.84265 92.87112)" style="fill: rgb(0%,0%,0%);">
    <use xlink:href="#GLYPHcmr10_67"></use>
    <use xlink:href="#GLYPHcmr10_104" x="7.22235"></use>
    <use xlink:href="#GLYPHcmr10_97" x="12.77802"></use>
    <use xlink:href="#GLYPHcmr10_105" x="17.7781"></use>
    <use xlink:href="#GLYPHcmr10_110" x="20.55594"></use>
  </g>
  <g transform="translate(149.63324 92.87112)" style="fill: rgb(0%,0%,0%);">
    <use xlink:href="#GLYPHcmr10_77"></use>
    <use xlink:href="#GLYPHcmr10_111" x="9.16682"></use>
    <use xlink:href="#GLYPHcmr10_110" x="14.16692"></use>
    <use xlink:href="#GLYPHcmr10_97" x="19.72258"></use>
    <use xlink:href="#GLYPHcmr10_100" x="24.72267"></use>
  </g>
  <path d="M22.98335 10.74498L22.98335 41.43335" style="stroke:rgb(0%,0%,0%); stroke-width: 0.5;stroke-linecap: round;stroke-linejoin: round;stroke-miterlimit: 10;fill: none;"></path>
  <path d="M21.45262 37.73792L22.98335 41.43335L24.51408 37.73792Z" style="stroke:rgb(0%,0%,0%); stroke-width: 0.5;fill: rgb(0%,0%,0%);"></path>
  <path d="M93.84949 9.77635L93.84949 40.46477" style="stroke:rgb(0%,0%,0%); stroke-width: 0.5;stroke-linecap: round;stroke-linejoin: round;stroke-miterlimit: 10;fill: none;"></path>
  <path d="M92.31876 36.76933L93.84949 40.46477L95.38022 36.76933Z" style="stroke:rgb(0%,0%,0%); stroke-width: 0.5;fill: rgb(0%,0%,0%);"></path>
  <path d="M109.13303 46.89218L137.80891 46.89218" style="stroke:rgb(0%,0%,0%); stroke-width: 0.5;stroke-linecap: round;stroke-linejoin: round;stroke-miterlimit: 10;fill: none;"></path>
  <path d="M134.11327 48.423L137.80891 46.89218L134.11327 45.36136Z" style="stroke:rgb(0%,0%,0%); stroke-width: 0.5;fill: rgb(0%,0%,0%);"></path>
  <path d="M93.84949 53.31982L93.84949 83.95313" style="stroke:rgb(0%,0%,0%); stroke-width: 0.5;stroke-linecap: round;stroke-linejoin: round;stroke-miterlimit: 10;fill: none;"></path>
  <path d="M92.31882 80.25786L93.84949 83.95313L95.38016 80.25786Z" style="stroke:rgb(0%,0%,0%); stroke-width: 0.5;fill: rgb(0%,0%,0%);"></path>
  <path d="M164.71562 53.31982L164.71562 83.95313" style="stroke:rgb(0%,0%,0%); stroke-width: 0.5;stroke-linecap: round;stroke-linejoin: round;stroke-miterlimit: 10;fill: none;"></path>
  <path d="M163.18495 80.25786L164.71562 83.95313L166.24629 80.25786Z" style="stroke:rgb(0%,0%,0%); stroke-width: 0.5;fill: rgb(0%,0%,0%);"></path>
  <path d="M108.85622 89.41187L147.63289 89.41187" style="stroke:rgb(0%,0%,0%); stroke-width: 0.5;stroke-linecap: round;stroke-linejoin: round;stroke-miterlimit: 10;fill: none;"></path>
  <path d="M143.93758 90.94255L147.63289 89.41187L143.93758 87.88118Z" style="stroke:rgb(0%,0%,0%); stroke-width: 0.5;fill: rgb(0%,0%,0%);"></path>
</svg>
